<svg width="64.000000" height="64.000000" viewBox="0 0 64 64" fill="none" xmlns="http://www.w3.org/2000/svg" xmlns:xlink="http://www.w3.org/1999/xlink">
	<desc>
			Created with Pixso.
	</desc>
	<defs>
		<clipPath id="clip50_181">
			<rect id="jb_phpstorm" rx="0.000000" width="63.000000" height="63.000000" transform="translate(0.500000 0.500000)" fill="white" fill-opacity="0"/>
		</clipPath>
		<linearGradient x1="0.510155" y1="42.830620" x2="27.380104" y2="7.338053" id="paint_linear_50_182_0" gradientUnits="userSpaceOnUse">
			<stop offset="0.016000" stop-color="#765AF8"/>
			<stop offset="0.382000" stop-color="#B345F1"/>
			<stop offset="0.758000" stop-color="#FA3293"/>
			<stop offset="0.941000" stop-color="#FF318C"/>
		</linearGradient>
		<linearGradient x1="2.495991" y1="44.232132" x2="29.322979" y2="8.796263" id="paint_linear_50_183_0" gradientUnits="userSpaceOnUse">
			<stop offset="0.016000" stop-color="#765AF8"/>
			<stop offset="0.382000" stop-color="#B345F1"/>
			<stop offset="0.758000" stop-color="#FA3293"/>
			<stop offset="0.941000" stop-color="#FF318C"/>
		</linearGradient>
		<linearGradient x1="46.497803" y1="42.427509" x2="31.336197" y2="6.443984" id="paint_linear_50_184_0" gradientUnits="userSpaceOnUse">
			<stop offset="0.183000" stop-color="#765AF8"/>
			<stop offset="0.238000" stop-color="#8655F6"/>
			<stop offset="0.345000" stop-color="#9F4CF3"/>
			<stop offset="0.443000" stop-color="#AE47F2"/>
			<stop offset="0.522000" stop-color="#B345F1"/>
		</linearGradient>
		<linearGradient x1="57.843285" y1="52.424320" x2="22.581108" y2="25.157579" id="paint_linear_50_185_0" gradientUnits="userSpaceOnUse">
			<stop offset="0.016000" stop-color="#765AF8"/>
			<stop offset="0.382000" stop-color="#B345F1"/>
		</linearGradient>
	</defs>
	<rect id="jb_phpstorm" rx="0.000000" width="63.000000" height="63.000000" transform="translate(0.500000 0.500000)" fill="#FFFFFF" fill-opacity="0"/>
	<g clip-path="url(#clip50_181)">
		<path id="vector" d="M36.2 13.89L33.18 4.75L10.88 0L0 12.34L34.01 29.71L36.2 13.89Z" fill="url(#paint_linear_50_182_0)" fill-opacity="1.000000" fill-rule="nonzero"/>
		<path id="vector" d="M25.6 37.85L24.96 18.83L0 12.34L6.12 49L25.6 48.82L25.6 37.85Z" fill="url(#paint_linear_50_183_0)" fill-opacity="1.000000" fill-rule="nonzero"/>
		<path id="vector" d="M20.2 37.48L21.39 22.4L39.49 3.84L55.68 6.76L64 27.52L55.31 36.11L41.14 33.82L32.36 43.06L20.2 37.48Z" fill="url(#paint_linear_50_184_0)" fill-opacity="1.000000" fill-rule="nonzero"/>
		<path id="vector" d="M39.49 3.84L13.53 26.88L18.56 56.5L40.13 64L64 49.73L39.49 3.84Z" fill="url(#paint_linear_50_185_0)" fill-opacity="1.000000" fill-rule="nonzero"/>
		<path id="vector" d="M12.25 12.25L51.74 12.25L51.74 51.74L12.25 51.74L12.25 12.25Z" fill="#000000" fill-opacity="1.000000" fill-rule="nonzero"/>
		<path id="vector" d="M16 44.34L30.81 44.34L30.81 46.81L16 46.81L16 44.34Z" fill="#FFFFFF" fill-opacity="1.000000" fill-rule="nonzero"/>
		<path id="vector" d="M15.81 17.37L22.49 17.37C26.42 17.37 28.79 19.65 28.79 23.03L28.79 23.13C28.79 26.97 25.87 28.89 22.12 28.89L19.38 28.89L19.38 33.82L15.81 33.82L15.81 17.37ZM22.3 25.59C24.13 25.59 25.14 24.5 25.14 23.13L25.14 23.03C25.14 21.39 24.04 20.57 22.21 20.57L19.47 20.57L19.47 25.59L22.3 25.59Z" fill="#FFFFFF" fill-opacity="1.000000" fill-rule="nonzero"/>
		<path id="vector" d="M29.71 31.45L31.81 28.89C33.28 30.08 34.83 30.9 36.75 30.9C38.21 30.9 39.13 30.35 39.13 29.34L39.13 29.25C39.13 28.34 38.58 27.88 35.84 27.15C32.54 26.33 30.35 25.41 30.35 22.12L30.35 22.03C30.35 19.01 32.73 17.09 36.11 17.09C38.49 17.09 40.59 17.82 42.23 19.2L40.31 21.94C38.85 20.93 37.39 20.29 36.02 20.29C34.65 20.29 33.91 20.93 33.91 21.76L33.91 21.85C33.91 22.94 34.65 23.31 37.48 24.04C40.77 24.96 42.69 26.14 42.69 28.98L42.69 29.07C42.69 32.36 40.22 34.19 36.66 34.19C34.19 34.1 31.72 33.18 29.71 31.45Z" fill="#FFFFFF" fill-opacity="1.000000" fill-rule="nonzero"/>
	</g>
</svg>
