<svg width="56.000000" height="56.000000" viewBox="0 0 56 56" fill="none" xmlns="http://www.w3.org/2000/svg" xmlns:xlink="http://www.w3.org/1999/xlink">
	<desc>
			Created with Pixso.
	</desc>
	<defs>
		<linearGradient x1="30.800028" y1="32.400013" x2="7.733364" y2="48.933357" id="paint_linear_50_201_0" gradientUnits="userSpaceOnUse">
			<stop stop-color="#FE5004"/>
			<stop offset="0.602538" stop-color="#FFB915"/>
			<stop offset="1.000000" stop-color="#FFFC41"/>
		</linearGradient>
		<linearGradient x1="21.666418" y1="33.800026" x2="21.799759" y2="36.200027" id="paint_linear_50_202_0" gradientUnits="userSpaceOnUse">
			<stop stop-color="#FD3E00"/>
			<stop offset="1.000000" stop-color="#FD4400" stop-opacity="0.000000"/>
		</linearGradient>
		<linearGradient x1="35.333328" y1="19.999992" x2="2.799994" y2="48.933319" id="paint_linear_50_203_0" gradientUnits="userSpaceOnUse">
			<stop stop-color="#005FC6"/>
			<stop offset="0.279756" stop-color="#23A4DF"/>
			<stop offset="0.465158" stop-color="#3AC2B7"/>
			<stop offset="0.640642" stop-color="#60EC7A"/>
			<stop offset="0.818668" stop-color="#CFFDBD"/>
			<stop offset="1.000000" stop-color="#D0FCB6"/>
		</linearGradient>
		<linearGradient x1="28.733326" y1="25.533335" x2="25.933327" y2="23.000002" id="paint_linear_50_204_0" gradientUnits="userSpaceOnUse">
			<stop stop-color="#0061CB"/>
			<stop offset="1.000000" stop-color="#067EEA" stop-opacity="0.000000"/>
		</linearGradient>
		<linearGradient x1="49.200031" y1="6.000023" x2="6.400036" y2="49.866695" id="paint_linear_50_205_0" gradientUnits="userSpaceOnUse">
			<stop stop-color="#8E55F1"/>
			<stop offset="0.140795" stop-color="#8B48DF"/>
			<stop offset="0.274905" stop-color="#E04DD9"/>
			<stop offset="0.492309" stop-color="#F496C8"/>
			<stop offset="0.633104" stop-color="#FAD2BA"/>
			<stop offset="0.856964" stop-color="#FEF7E5"/>
			<stop offset="1.000000" stop-color="#FFF5BF"/>
		</linearGradient>
		<linearGradient x1="44.999931" y1="24.333366" x2="10.066610" y2="40.133385" id="paint_linear_50_206_0" gradientUnits="userSpaceOnUse">
			<stop stop-color="#F41A73"/>
			<stop offset="0.399909" stop-color="#FC50A3"/>
			<stop offset="0.584511" stop-color="#FE9485"/>
			<stop offset="0.703104" stop-color="#FFAF88"/>
			<stop offset="1.000000" stop-color="#FFC385"/>
		</linearGradient>
		<linearGradient x1="32.401783" y1="29.200010" x2="32.468472" y2="32.400009" id="paint_linear_50_207_0" gradientUnits="userSpaceOnUse">
			<stop stop-color="#9B0008"/>
			<stop offset="1.000000" stop-color="#EA115A" stop-opacity="0.000000"/>
		</linearGradient>
		<linearGradient x1="49.199966" y1="9.600019" x2="17.666628" y2="30.200020" id="paint_linear_50_208_0" gradientUnits="userSpaceOnUse">
			<stop stop-color="#231283"/>
			<stop offset="0.362865" stop-color="#7053C6"/>
			<stop offset="0.466353" stop-color="#7272DB"/>
			<stop offset="0.634311" stop-color="#399EE9"/>
			<stop offset="1.000000" stop-color="#00CFFF"/>
		</linearGradient>
		<linearGradient x1="41.333305" y1="20.000017" x2="42.733307" y2="21.800016" id="paint_linear_50_209_0" gradientUnits="userSpaceOnUse">
			<stop stop-color="#3F259D" stop-opacity="0.000000"/>
			<stop offset="1.000000" stop-color="#412DAA"/>
		</linearGradient>
	</defs>
	<path id="bg" d="M0 20.26C0 13.17 0 9.62 1.38 6.91C2.59 4.53 4.53 2.59 6.91 1.38C9.62 0 13.17 0 20.26 0L35.73 0C42.82 0 46.37 0 49.08 1.38C51.46 2.59 53.4 4.53 54.61 6.91C56 9.62 56 13.17 56 20.26L56 35.73C56 42.82 56 46.37 54.61 49.08C53.4 51.46 51.46 53.4 49.08 54.61C46.37 56 42.82 56 35.73 56L20.26 56C13.17 56 9.62 56 6.91 54.61C4.53 53.4 2.59 51.46 1.38 49.08C0 46.37 0 42.82 0 35.73L0 20.26Z" fill="#1E252B" fill-opacity="1.000000" fill-rule="nonzero"/>
	<path id="bg" d="M6.4 49.93C6.4 42.93 7.93 34.54 15.73 28.8C24.06 22.66 30.26 24.66 40.2 18.73C44.77 16 48.09 12.94 49.06 5.93C50.46 13.2 49.4 22.66 38.46 29.93C27.53 37.19 17.53 35.78 12.06 40.06C8.38 42.94 6.75 47.84 6.4 49.93Z" fill="url(#paint_linear_50_201_0)" fill-opacity="1.000000" fill-rule="evenodd"/>
	<path id="bg_top" d="M6.4 49.93C6.4 42.93 7.93 34.54 15.73 28.8C24.06 22.66 30.26 24.66 40.2 18.73C44.77 16 48.09 12.94 49.06 5.93C50.46 13.2 49.4 22.66 38.46 29.93C27.53 37.19 17.53 35.78 12.06 40.06C8.38 42.94 6.75 47.84 6.4 49.93Z" fill="url(#paint_linear_50_202_0)" fill-opacity="1.000000" fill-rule="evenodd"/>
	<path id="one" d="M6.49 47.06C6.92 40.73 8.97 33.77 15.73 28.8C20.07 25.6 23.84 24.61 27.85 23.56C30.2 22.94 32.63 22.31 35.31 21.19C34.33 22.13 29.68 24.31 26.18 25.76C22.68 27.22 19 28.75 15.93 30.8C9.77 34.9 7.27 42.04 6.49 47.06Z" fill="url(#paint_linear_50_203_0)" fill-opacity="1.000000" fill-rule="nonzero"/>
	<path id="one_top" d="M6.49 47.06C6.92 40.73 8.97 33.77 15.73 28.8C20.07 25.6 23.84 24.61 27.85 23.56C30.2 22.94 32.63 22.31 35.31 21.19C34.33 22.13 29.68 24.31 26.18 25.76C22.68 27.22 19 28.75 15.93 30.8C9.77 34.9 7.27 42.04 6.49 47.06Z" fill="url(#paint_linear_50_204_0)" fill-opacity="1.000000" fill-rule="nonzero"/>
	<path id="three" d="M44.43 24.74C43.66 25.49 42.81 26.16 41.86 26.73C37.6 29.29 33.06 30.11 28.65 30.92C25.13 31.56 21.69 32.18 18.53 33.66C11.4 36.99 7 43.93 6.4 49.93C6.4 49.93 6.4 49.93 6.4 49.93C6.4 49.93 6.4 49.93 6.4 49.92C6.4 49.47 6.4 49 6.42 48.53C6.45 47.79 6.53 46.97 6.66 46.09C7.6 41.15 10.16 34.64 15.93 30.8C18.37 29.17 21.2 27.86 24.02 26.67C26.5 25.85 28.73 25.35 30.86 24.87C34.21 24.11 37.29 23.41 40.66 21.66C47.73 18 49.58 10.47 49.08 6.05C50.14 11.66 49.71 18.55 44.43 24.74Z" fill="url(#paint_linear_50_205_0)" fill-opacity="1.000000" fill-rule="nonzero"/>
	<path id="four" d="M44.43 24.74C43.66 25.49 42.81 26.16 41.86 26.73C37.59 29.29 33.06 30.11 28.65 30.92C25.13 31.56 21.69 32.18 18.53 33.66C14.43 35.58 11.23 38.69 9.14 42.12C10.98 39.53 13.79 36.63 17.26 35.53C20.65 34.45 23.87 34.34 27.23 34.22C28.19 34.19 29.16 34.16 30.15 34.1C32.81 33.13 35.61 31.83 38.46 29.93C40.92 28.29 42.88 26.55 44.43 24.74Z" fill="url(#paint_linear_50_206_0)" fill-opacity="1.000000" fill-rule="nonzero"/>
	<path id="four_top" d="M44.43 24.74C43.66 25.49 42.81 26.16 41.86 26.73C37.59 29.29 33.06 30.11 28.65 30.92C25.13 31.56 21.69 32.18 18.53 33.66C14.43 35.58 11.23 38.69 9.14 42.12C10.98 39.53 13.79 36.63 17.26 35.53C20.65 34.45 23.87 34.34 27.23 34.22C28.19 34.19 29.16 34.16 30.15 34.1C32.81 33.13 35.61 31.83 38.46 29.93C40.92 28.29 42.88 26.55 44.43 24.74Z" fill="url(#paint_linear_50_207_0)" fill-opacity="1.000000" fill-rule="nonzero"/>
	<path id="two" d="M49.08 6.05C49.08 6.01 49.07 5.97 49.06 5.93C48.09 12.94 44.77 16 40.2 18.73C38.46 19.76 36.84 20.56 35.31 21.19C34.33 22.13 29.68 24.31 26.18 25.76L26.18 25.77C25.46 26.06 24.74 26.36 24.02 26.67C26.5 25.85 28.73 25.35 30.86 24.87C34.21 24.11 37.29 23.41 40.66 21.66C47.73 18 49.58 10.47 49.08 6.05Z" fill="url(#paint_linear_50_208_0)" fill-opacity="1.000000" fill-rule="nonzero"/>
	<path id="two_top" d="M49.08 6.05C49.08 6.01 49.07 5.97 49.06 5.93C48.09 12.94 44.77 16 40.2 18.73C38.46 19.76 36.84 20.56 35.31 21.19C34.33 22.13 29.68 24.31 26.18 25.76L26.18 25.77C25.46 26.06 24.74 26.36 24.02 26.67C26.5 25.85 28.73 25.35 30.86 24.87C34.21 24.11 37.29 23.41 40.66 21.66C47.73 18 49.58 10.47 49.08 6.05Z" fill="url(#paint_linear_50_209_0)" fill-opacity="1.000000" fill-rule="nonzero"/>
</svg>
