<svg width="56.000000" height="44.000000" viewBox="0 0 56 44" fill="none" xmlns="http://www.w3.org/2000/svg" xmlns:xlink="http://www.w3.org/1999/xlink">
	<desc>
			Created with Pixso.
	</desc>
	<defs/>
	<path id="vector" d="M8.63 30.33L5.7 31.38L5.54 39.95L15.68 36.31C12.2 35.16 9.66 33.14 8.63 30.33Z" fill="#FDBD39" fill-opacity="1.000000" fill-rule="evenodd"/>
	<path id="vector" d="M10.16 21.27L0 24.92L5.7 31.38L8.63 30.33C7.59 27.53 8.23 24.37 10.16 21.27Z" fill="#F69833" fill-opacity="1.000000" fill-rule="evenodd"/>
	<path id="vector" d="M27.26 8.91C14.32 13.56 5.98 23.15 8.63 30.33L55.5 13.5C52.85 6.32 40.21 4.26 27.26 8.91Z" fill="#FECF33" fill-opacity="1.000000" fill-rule="evenodd"/>
	<path id="vector" d="M36.86 34.92C49.8 30.27 58.17 20.73 55.5 13.5L8.63 30.33C11.29 37.56 23.92 39.57 36.86 34.92Z" fill="#EE6723" fill-opacity="1.000000" fill-rule="evenodd"/>
	<path id="vector" d="M55.5 13.5L8.63 30.33C9.54 32.82 13.04 34.05 17.96 34.05C22.74 34.05 28.87 32.88 35.26 30.59C48.21 25.94 57.31 18.41 55.5 13.5Z" fill="#F69833" fill-opacity="1.000000" fill-rule="evenodd"/>
	<path id="vector" d="M46.17 9.79C41.38 9.79 35.25 10.95 28.86 13.25C15.92 17.89 6.81 25.42 8.63 30.33L55.5 13.5C54.58 11.01 51.08 9.79 46.17 9.79Z" fill="#FDBD39" fill-opacity="1.000000" fill-rule="evenodd"/>
	<path id="vector" d="M43.58 40.4L43.58 40.4C42.2 40.4 40.17 39.18 37.53 36.76C34.42 33.91 30.85 29.72 27.48 24.98C24.12 20.24 21.35 15.5 19.7 11.63C17.9 7.42 17.64 4.83 18.93 3.94C19.22 3.74 19.56 3.64 19.95 3.64C21.01 3.64 23.06 4.41 26.86 8.09L26.95 8.17L26.94 8.28C26.91 8.55 26.89 8.82 26.86 9.08L26.82 9.6L26.45 9.23C22.35 5.17 20.55 4.73 19.97 4.73C19.8 4.73 19.67 4.77 19.57 4.83C19.01 5.22 18.97 7.12 20.72 11.21C22.35 15.01 25.07 19.67 28.39 24.35C31.72 29.03 35.23 33.16 38.29 35.96C41.59 38.99 43.08 39.31 43.56 39.31C43.73 39.31 43.87 39.28 43.97 39.21C44.56 38.8 44.56 36.76 42.61 32.37L42.52 32.16L42.72 32.06C42.91 31.95 43.1 31.85 43.28 31.75L43.52 31.62L43.63 31.86C45.01 34.98 46.3 38.94 44.61 40.11C44.32 40.3 43.98 40.4 43.58 40.4ZM43.58 39.92L43.58 39.92L43.58 40.16L43.58 39.92Z" fill="#EE6723" fill-opacity="1.000000" fill-rule="evenodd"/>
	<path id="vector" d="M37.18 34.79L37.16 35.03C36.83 39.01 35.97 43.8 33.72 43.99C33.68 43.99 33.63 44 33.58 44C32.06 44 30.61 41.85 29.29 37.61C28.04 33.6 27.07 28.21 26.56 22.44C26.05 16.68 26.05 11.21 26.58 7.05C27.15 2.51 28.24 0.14 29.82 0C29.87 0 29.91 0 29.96 0C31.07 0 32.74 1.23 34.45 6.97L33.33 7.18C32.76 5.26 32.14 3.7 31.52 2.63C30.95 1.64 30.4 1.09 29.96 1.09C29.94 1.09 29.93 1.09 29.92 1.09C29.23 1.15 28.24 2.78 27.68 7.18C27.17 11.27 27.16 16.66 27.66 22.35C28.17 28.04 29.12 33.35 30.35 37.28C30.9 39.05 31.5 40.5 32.1 41.49C32.64 42.4 33.17 42.9 33.58 42.9C33.6 42.9 33.61 42.9 33.62 42.9C34.28 42.84 35.51 41.15 36.03 35.18L37.18 34.79Z" fill="#EE6723" fill-opacity="1.000000" fill-rule="evenodd"/>
</svg>
